<?xml version="1.0" encoding="UTF-8" standalone="no"?>
<!-- Created with Inkscape (http://www.inkscape.org/) -->

<svg
   version="1.1"
   id="svg2"
   width="289"
   height="289"
   viewBox="0 0 289 289"
   sodipodi:docname="logo.jpg.svg"
   inkscape:version="1.1.2 (0a00cf5339, 2022-02-04)"
   xmlns:inkscape="http://www.inkscape.org/namespaces/inkscape"
   xmlns:sodipodi="http://sodipodi.sourceforge.net/DTD/sodipodi-0.dtd"
   xmlns="http://www.w3.org/2000/svg"
   xmlns:svg="http://www.w3.org/2000/svg">
  <defs
     id="defs6" />
  <sodipodi:namedview
     id="namedview4"
     pagecolor="#ffffff"
     bordercolor="#666666"
     borderopacity="1.0"
     inkscape:pageshadow="2"
     inkscape:pageopacity="0.0"
     inkscape:pagecheckerboard="0"
     showgrid="false"
     fit-margin-top="0"
     fit-margin-left="2.7755576e-17"
     fit-margin-right="0"
     fit-margin-bottom="0"
     inkscape:zoom="1.4652778"
     inkscape:cx="141.61137"
     inkscape:cy="144.34123"
     inkscape:window-width="1834"
     inkscape:window-height="1016"
     inkscape:window-x="86"
     inkscape:window-y="27"
     inkscape:window-maximized="1"
     inkscape:current-layer="g8" />
  <g
     inkscape:groupmode="layer"
     inkscape:label="Image"
     id="g8"
     transform="translate(-1.8040905,-1)">
    <g
       id="g13082"
       transform="matrix(1.0068678,0,0,1.0000585,-0.01239009,-5.851784e-5)"
       inkscape:export-filename="/home/usuario/Documentos/platzi/cursos/curso Asincrinismo js/landingPlatzi/src/assets/logo.png"
       inkscape:export-xdpi="110.283"
       inkscape:export-ydpi="110.283">
      <path
         style="fill:#262202;fill-opacity:1;stroke-width:1.00522"
         d="M 1.8040905,145.5 V 1 H 146.30409 c 89.62247,0 144.5,0.3598524 144.5,0.9475404 0,0.5211472 -0.45156,1.2275937 -1.00347,1.5698812 -0.66136,0.4101644 -1.00348,49.3519194 -1.00348,143.5524584 V 290 H 145.30062 1.8040905 Z M 281.4115,286.47965 c -0.31683,-0.82854 -3.13244,-5.92631 -6.2569,-11.3284 -3.12446,-5.40209 -6.45528,-11.18139 -7.40183,-12.84289 -0.94655,-1.6615 -5.00532,-8.6851 -9.01948,-15.60801 -4.01416,-6.92291 -8.07853,-13.94652 -9.03193,-15.60802 -18.40652,-32.07679 -29.94326,-52.29668 -32.03063,-56.1385 -1.42934,-2.6307 -2.99588,-4.7831 -3.48122,-4.7831 -0.48532,0 -5.36738,2.71882 -10.84899,6.04181 -5.48162,3.323 -10.13457,6.04182 -10.33988,6.04182 -0.3503,0 -19.33661,10.96681 -22.61322,13.06177 -0.82786,0.52931 -3.76302,2.26327 -6.52256,3.85324 -29.42889,16.95615 -40.85731,23.5826 -50.67535,29.38272 -10.53178,6.22178 -51.255396,29.87226 -62.284621,36.17217 -31.246917,17.8483 -38.031074,21.86158 -38.045599,22.50658 -0.0094,0.41537 60.540681,0.75522 134.55563,0.75522 119.04757,0 134.50618,-0.17379 133.99658,-1.50641 z M 10.83534,281.6365 c 2.483594,-1.54329 13.546875,-8.06481 24.585069,-14.49228 19.261038,-11.21558 24.63368,-14.32996 61.713542,-35.77378 9.106519,-5.26643 18.022009,-10.42883 19.812229,-11.47201 1.79022,-1.04318 3.2578,-2.51744 3.26129,-3.27613 0.003,-0.7587 -2.40621,-5.51663 -5.35491,-10.57317 -2.94868,-5.05656 -7.34444,-12.59225 -9.76836,-16.74599 -2.42392,-4.15375 -4.89822,-8.45854 -5.498465,-9.56621 -0.600243,-1.10766 -4.624148,-8.13127 -8.94201,-15.60801 C 86.32586,156.65218 79.310852,144.41751 75.054817,136.94077 70.798781,129.46402 63.132522,116.09652 58.018687,107.23519 52.904851,98.373868 47.586928,89.084582 46.20108,86.592334 44.815233,84.100087 43.350649,81.60784 42.946451,81.054007 42.542253,80.500174 41.088372,78.007927 39.715607,75.515679 38.342842,73.023432 30.998963,60.109059 23.395877,46.817073 15.79279,33.525087 8.8695574,21.177134 8.0109127,19.377178 7.1522682,17.577221 5.9689226,16.104512 5.381256,16.104492 4.6296824,16.104466 4.3871196,55.90167 4.5634415,150.28306 c 0.1378688,73.79824 0.2507594,134.32966 0.250868,134.51427 2.865e-4,0.48669 0.9720875,-0.0235 6.0210305,-3.16083 z M 283.23608,9.18147 c -0.30306,-0.3041323 -1.32074,-0.074012 -2.26148,0.511379 -3.47764,2.164016 -62.41112,36.462997 -74.96391,43.628611 -5.5191,3.150513 -13.09073,7.620515 -16.82583,9.933338 -3.73512,2.312823 -7.00099,4.205132 -7.2575,4.205132 -0.39268,0 -13.49366,7.807221 -14.3264,8.537484 -0.15279,0.13398 3.7361,7.217291 8.64195,15.740689 4.90587,8.523397 14.90603,25.919217 22.2226,38.657367 7.31655,12.73815 18.50895,32.223 24.87199,43.29965 10.70574,18.63636 30.4069,53.03129 51.31766,89.59211 l 8.62288,15.07641 0.25455,-134.3146 c 0.14,-73.873031 0.007,-134.5634378 -0.29651,-134.86757 z M 131.46757,211.95993 c 2.03052,-1.38458 3.93363,-2.51742 4.22914,-2.51742 0.29553,0 3.48837,-1.81254 7.09523,-4.02788 3.60685,-2.21533 6.78471,-4.02787 7.06192,-4.02787 0.27721,0 2.33072,-1.15718 4.56339,-2.57151 2.23266,-1.41432 5.49752,-3.38383 7.25523,-4.37666 1.75771,-0.99285 11.77554,-6.7811 22.26182,-12.8628 10.48628,-6.0817 20.98511,-12.12551 23.33073,-13.43071 2.34561,-1.30519 4.26475,-2.90724 4.26475,-3.56011 0,-0.65288 -5.98858,-11.55798 -13.30798,-24.23357 -7.31939,-12.67559 -18.26978,-31.76284 -24.3342,-42.416127 -6.06442,-10.653283 -11.35189,-19.376149 -11.74993,-19.384146 -0.39803,-0.008 -4.23631,2.082843 -8.52951,4.646314 -4.29319,2.563471 -9.16049,5.438253 -10.81622,6.388405 -1.65574,0.950151 -10.68699,6.183194 -20.06945,11.628984 -9.38247,5.44579 -23.138697,13.38516 -30.569408,17.64304 -7.430711,4.25787 -13.938677,8.42294 -14.462148,9.25571 -0.692379,1.10147 0.222728,3.53975 3.357799,8.94678 4.942682,8.52461 23.434807,40.75257 35.898777,62.5642 4.66809,8.16904 9.01411,14.85279 9.65782,14.85279 0.64371,0 2.83172,-1.13284 4.86224,-2.51742 z M 79.477718,120.32578 c 2.033212,-1.38458 3.966569,-2.51742 4.296351,-2.51742 0.329782,0 3.459598,-1.81254 6.955147,-4.02787 3.495549,-2.21533 6.533892,-4.02788 6.751874,-4.02788 0.217982,0 5.5349,-3.00696 11.8154,-6.68214 6.28048,-3.675176 12.77374,-7.45722 14.42947,-8.404542 1.65574,-0.947322 11.81589,-6.861388 22.57813,-13.142369 10.76224,-6.280981 28.1474,-16.358589 38.63368,-22.394685 10.48629,-6.036096 19.51754,-11.328841 20.06944,-11.761656 0.55191,-0.432814 3.48707,-2.158866 6.52257,-3.83567 3.03551,-1.676803 18.07054,-10.346391 33.41118,-19.265751 15.34066,-8.919359 28.32308,-16.2170165 28.84983,-16.2170165 0.52677,0 0.95774,-0.4531359 0.95774,-1.0069687 0,-0.6662838 -45.3235,-1.0069686 -133.96354,-1.0069686 -73.679945,0 -133.9635384,0.2046822 -133.9635384,0.4548493 0,0.250167 3.100852,5.8010815 6.8907824,12.3353655 16.087218,27.736251 32.973247,57.130206 38.642742,67.266435 11.485235,20.533927 21.297527,36.751717 22.235988,36.751717 0.654505,0 2.853543,-1.13284 4.886754,-2.51743 z"
         id="path1007" />
      <path
         style="fill:#f8cb00;fill-opacity:1;stroke:#000000;stroke-width:1.98948;stroke-linecap:round"
         d="m 125.10675,211.85618 c -2.53488,-3.38569 -5.39556,-8.24476 -25.606301,-43.49418 -19.884194,-34.67987 -21.435623,-37.51399 -21.435623,-39.15804 0,-1.48608 4.960839,-4.57628 38.693124,-24.10259 16.19633,-9.375427 32.82204,-19.001069 36.94602,-21.390313 4.12399,-2.389244 7.74887,-4.34408 8.05531,-4.34408 0.88588,0 3.94623,5.124112 24.62633,41.233213 25.48915,44.50613 25.08111,43.73595 23.82603,44.96927 -0.55059,0.54104 -11.01677,6.75398 -23.25819,13.80652 -12.24141,7.05253 -24.72251,14.31294 -27.73577,16.13423 -3.01329,1.8213 -10.10132,5.9229 -15.7512,9.11468 -5.64987,3.19178 -11.71125,6.63326 -13.46973,7.64773 l -3.19721,1.84451 z"
         id="path6641" />
      <path
         style="fill:#3b7fae;fill-opacity:1;stroke:#000000;stroke-width:1.98948;stroke-linecap:round"
         d="M 70.829039,116.78065 C 68.732522,113.51947 58.759995,96.422596 48.667866,78.787616 38.575737,61.152634 25.190426,37.817826 18.922727,26.932486 12.655028,16.047145 7.5269111,7.0016083 7.5269111,6.8312914 c 0,-0.4957771 246.7128089,-0.3568592 257.1363489,0.1447873 l 9.44297,0.4544544 -2.65756,1.3591837 c -3.52348,1.8020572 -57.75027,32.9310372 -69.08645,39.6591902 -4.89656,2.906168 -29.85876,17.423488 -55.47156,32.260713 -55.251285,32.00648 -63.605125,36.8675 -66.771332,38.85355 -5.736389,3.59823 -5.057617,3.80152 -9.290289,-2.78252 z"
         id="path9796" />
      <path
         style="fill:#3b7fae;fill-opacity:1;stroke:#000000;stroke-width:1.98948;stroke-linecap:round"
         d="m 22.250845,286.94109 -8.21801,-0.37719 2.739337,-1.63771 c 1.506634,-0.90074 16.144965,-9.36792 32.52962,-18.81596 16.384657,-9.44804 45.199053,-26.14747 64.031988,-37.10983 34.89395,-20.31124 69.15894,-40.23823 89.26351,-51.91166 10.88225,-6.31863 11.22598,-6.46294 12.40379,-5.20746 0.66625,0.71019 6.92506,11.34187 13.90846,23.62593 6.9834,12.28406 21.51014,37.62322 32.28164,56.30922 10.7715,18.68602 19.58455,34.17785 19.58455,34.42629 0,0.24844 -4.2091,0.65428 -9.35355,0.90186 -11.03914,0.53127 -237.186591,0.34659 -249.171335,-0.20349 z"
         id="path9835" />
      <path
         style="fill:#e14634;fill-opacity:1;stroke:#000000;stroke-width:1.98948;stroke-linecap:round"
         d="M 5.2364008,276.4039 C 4.673829,266.60685 4.8087412,38.993517 5.3847579,26.107403 l 0.430068,-9.621084 4.0480972,7.215813 c 7.9844529,14.232445 36.3678399,63.87286 68.5677949,119.919938 42.945182,74.75018 41.402122,72.02944 41.405812,73.00742 0.004,1.17825 -0.7103,1.61228 -41.086871,24.95154 -19.774585,11.43049 -44.120437,25.57301 -54.101895,31.42779 -9.981457,5.8548 -18.3327529,10.74808 -18.5584349,10.87395 -0.2256821,0.12587 -0.6094998,-3.23962 -0.8529283,-7.47887 z"
         id="path12838" />
      <path
         style="fill:#e14634;fill-opacity:1;stroke:#000000;stroke-width:1.98948;stroke-linecap:round"
         d="M 257.53573,232.54965 C 243.8121,208.58558 219.35564,165.93955 203.18804,137.7807 168.91934,78.09544 168.23202,76.861785 168.7649,75.996549 c 0.22306,-0.362172 4.02151,-2.741675 8.44102,-5.287781 4.41949,-2.546108 12.04173,-7.012966 16.93829,-9.926352 4.89656,-2.913387 20.92168,-12.257747 35.61137,-20.765245 14.6897,-8.507498 32.56386,-18.897512 39.72037,-23.088919 l 13.01186,-7.6207407 0.57295,27.2985037 c 0.31513,15.014178 0.31513,75.047145 0,133.406595 l -0.57295,106.10808 z"
         id="path12877" />
    </g>
  </g>
</svg>
